<svg width="36" height="36" viewBox="0 0 36 36" fill="none" xmlns="http://www.w3.org/2000/svg">
<g clip-path="url(#clip0)">
<g filter="url(#filter0_d)">
<circle cx="17" cy="17" r="16" fill="#FF3B0C"/>
</g>
<path d="M20.1727 7.16877C19.6955 7.23527 19.3161 7.30959 19.2105 7.35653C18.4086 7.71248 17.1648 8.93288 16.3551 10.1689C15.1151 12.0621 14.4932 14.1626 14.4736 16.5252C14.4736 16.975 14.4658 17.3388 14.4619 17.3388C14.415 17.3388 14.0825 16.8068 13.9143 16.4587C13.4645 15.5199 13.3393 14.5499 13.5075 13.3138C13.5544 12.9813 13.5896 12.6997 13.5896 12.684C13.5896 12.6684 13.394 12.6058 13.1554 12.5471C12.7995 12.4572 12.7134 12.4494 12.69 12.4924C12.6704 12.5198 12.6 12.7036 12.5296 12.8992C12.1463 13.9788 11.7825 14.8119 11.1253 16.1301C10.7577 16.8577 10.5112 17.4287 10.347 17.9255C9.85019 19.4002 9.8893 21.0391 10.4487 22.5411C11.2427 24.6729 13.0811 26.3158 15.2716 26.8595C15.8857 27.012 16.2729 27.059 16.9731 27.055C17.6811 27.055 18.037 27.012 18.6433 26.8595C19.8911 26.5465 20.9551 25.9403 21.886 25.0015C23.2081 23.6755 23.9161 21.9427 23.9161 20.0338C23.9161 18.7704 23.6736 17.6595 23.1729 16.6034C22.7074 15.6294 22.2772 15.0192 20.9824 13.5055C20.1062 12.4767 19.8364 12.0856 19.5782 11.4832C19.2066 10.6188 19.2027 9.71519 19.5665 8.92506C19.6994 8.6356 19.9185 8.33441 20.3175 7.89241C20.9394 7.20398 21.0646 7.05143 21.0176 7.05534C20.9863 7.05925 20.6069 7.1101 20.1727 7.16877Z" fill="white"/>
</g>
<defs>
<filter id="filter0_d" x="-1" y="-1" width="40" height="40" filterUnits="userSpaceOnUse" color-interpolation-filters="sRGB">
<feFlood flood-opacity="0" result="BackgroundImageFix"/>
<feColorMatrix in="SourceAlpha" type="matrix" values="0 0 0 0 0 0 0 0 0 0 0 0 0 0 0 0 0 0 127 0"/>
<feOffset dx="2" dy="2"/>
<feGaussianBlur stdDeviation="2"/>
<feColorMatrix type="matrix" values="0 0 0 0 0 0 0 0 0 0 0 0 0 0 0 0 0 0 0.25 0"/>
<feBlend mode="normal" in2="BackgroundImageFix" result="effect1_dropShadow"/>
<feBlend mode="normal" in="SourceGraphic" in2="effect1_dropShadow" result="shape"/>
</filter>
<clipPath id="clip0">
<rect width="36" height="36" fill="white"/>
</clipPath>
</defs>
</svg>
